<?xml version="1.0"?>
<svg xmlns="http://www.w3.org/2000/svg" xmlns:lc="http://www.librecad.org" xmlns:xlink="http://www.w3.org/1999/xlink" width="10988.72131267in" height="8710.03582553in" viewBox="0 0 10988.72131267 8710.03582553">
    <g lc:layername="0" lc:is_locked="false" lc:is_construction="false" fill="none" stroke="black" stroke-width="1">
        <circle cx="1947.44194458" cy="1259.17672523" r="7.50879186"/>
        <circle cx="1947.44194458" cy="1259.17672523" r="11.26318778"/>
        <line x1="1947.44194458" y1="1266.68551708" x2="1947.44194458" y2="1251.66793337"/>
        <line x1="1939.93315272" y1="1259.17672523" x2="1954.95073644" y2="1259.17672523"/>
    </g>
    <g lc:layername="Bath 1" lc:is_locked="false" lc:is_construction="false" fill="none" stroke="black" stroke-width="1">
        <g lc:blockname="Toilet - top">
            <g lc:layername="0" lc:is_locked="false" lc:is_construction="false" fill="none" stroke="black" stroke-width="1">
                <path d="M3062.83521774,2177.22239461 A48,48 0 0,0 3087.90749585,2177.2223948 "/>
                <path d="M3055.64297061,2161.16461602 A48,48 0 0,0 3095.09974338,2161.16461644 "/>
                <line x1="3123.37110586" y1="1950.88871688" x2="3027.37110586" y2="1950.88871688"/>
                <path d="M3201.37110586,1878.88871688 L3201.37110586,1782.88871688 L2949.37110586,1782.88871688 L2949.37110586,1878.88871688 L3201.37110586,1878.88871688 Z "/>
                <path d="M2973.37110586,1866.88871688 L3177.37110586,1866.88871688 "/>
                <path d="M3177.37110586,1794.88871688 L2973.37110586,1794.88871688 "/>
                <line x1="3027.37110586" y1="1878.88871688" x2="3003.37110586" y2="1950.88871688"/>
                <path d="M3003.37198962,1950.88833901 A146.02824061,146.02824061 0 0,0 3062.83521774,2177.22239461 "/>
                <path d="M3027.37215086,1950.88830578 A135.95014959,135.95014959 0 0,0 3055.64297061,2161.16461602 "/>
                <path d="M2961.37110586,1806.88871688 L2961.37110586,1854.88871688 "/>
                <line x1="2991.37110586" y1="1896.88871688" x2="2955.37110586" y2="1896.88871688"/>
                <line x1="2955.37110586" y1="1884.88871688" x2="2979.37110586" y2="1884.88871688"/>
                <line x1="2955.37110586" y1="1896.88871688" x2="2955.37110586" y2="1884.88871688"/>
                <line x1="2979.37110586" y1="1884.88871688" x2="2979.37110586" y2="1878.88871688"/>
                <line x1="2991.37110586" y1="1878.88871688" x2="2991.37110586" y2="1896.88871688"/>
                <path d="M2961.37110557,1854.8887169 A10.606602,10.606602 0 0,0 2973.37110547,1866.88871722 "/>
                <path d="M2973.37110547,1794.88871653 A10.606602,10.606602 0 0,0 2961.37110552,1806.88871648 "/>
                <line x1="3123.37110586" y1="1878.88871688" x2="3147.37110586" y2="1950.88871688"/>
                <path d="M3087.90749585,2177.2223948 A146.02841085,146.02841085 0 0,0 3147.3713973,1950.88831588 "/>
                <path d="M3095.09974338,2161.16461644 A135.95023466,135.95023466 0 0,0 3123.37122396,1950.88828041 "/>
                <line x1="3189.37110586" y1="1854.88871688" x2="3189.37110586" y2="1806.88871688"/>
                <path d="M3177.37110625,1866.88871722 A10.606602,10.606602 0 0,0 3189.3711062,1854.88871727 "/>
                <path d="M3189.3711062,1806.88871648 A10.606602,10.606602 0 0,0 3177.37110625,1794.88871653 "/>
            </g>
            <g lc:layername="Bath 1" lc:is_locked="false" lc:is_construction="false" fill="none" stroke="black" stroke-width="1"/>
            <g lc:layername="CYAN" lc:is_locked="false" lc:is_construction="false" fill="none" stroke="black" stroke-width="1"/>
            <g lc:layername="Notes" lc:is_locked="false" lc:is_construction="false" fill="none" stroke="black" stroke-width="1"/>
            <g lc:layername="Stairs" lc:is_locked="false" lc:is_construction="false" fill="none" stroke="black" stroke-width="1"/>
            <g lc:layername="WALL" lc:is_locked="false" lc:is_construction="false" fill="none" stroke="black" stroke-width="1"/>
            <g lc:layername="Walls" lc:is_locked="false" lc:is_construction="false" fill="none" stroke="black" stroke-width="1"/>
        </g>
    </g>
    <g lc:layername="CYAN" lc:is_locked="false" lc:is_construction="false" fill="none" stroke="black" stroke-width="1">
        <line x1="1695.5262435" y1="3798.18523797" x2="1731.02175691" y2="3736.7052053"/>
        <line x1="1589.03970325" y1="3736.7052053" x2="1624.53521667" y2="3798.18523797"/>
        <line x1="1695.5262435" y1="3675.22517262" x2="1624.53521667" y2="3675.22517262"/>
        <line x1="1731.02175691" y1="3736.7052053" x2="1695.5262435" y2="3675.22517262"/>
        <line x1="1624.53521667" y1="3675.22517262" x2="1589.03970325" y2="3736.7052053"/>
        <line x1="1695.5262435" y1="3798.18523797" x2="1624.53521667" y2="3798.18523797"/>
        <line x1="1735.0041549" y1="951.42221579" x2="1770.49966832" y2="889.94218311"/>
        <line x1="1628.51761466" y1="889.94218311" x2="1664.01312807" y2="951.42221579"/>
        <line x1="1735.0041549" y1="828.46215044" x2="1664.01312807" y2="828.46215044"/>
        <line x1="1770.49966832" y1="889.94218311" x2="1735.0041549" y2="828.46215044"/>
        <line x1="1664.01312807" y1="828.46215044" x2="1628.51761466" y2="889.94218311"/>
        <line x1="1735.0041549" y1="951.42221579" x2="1664.01312807" y2="951.42221579"/>
        <line x1="2078.63621589" y1="469.04531706" x2="2114.13172931" y2="407.56528438"/>
        <line x1="1972.14967565" y1="407.56528438" x2="2007.64518906" y2="469.04531706"/>
        <line x1="2078.63621589" y1="346.08525171" x2="2007.64518906" y2="346.08525171"/>
        <line x1="2114.13172931" y1="407.56528438" x2="2078.63621589" y2="346.08525171"/>
        <line x1="2007.64518906" y1="346.08525171" x2="1972.14967565" y2="407.56528438"/>
        <line x1="2078.63621589" y1="469.04531706" x2="2007.64518906" y2="469.04531706"/>
    </g>
    <g lc:layername="Notes" lc:is_locked="false" lc:is_construction="false" fill="none" stroke="black" stroke-width="1">
        <line x1="8987.72131267" y1="5097.18966546" x2="8987.72131267" y2="4905.18966546"/>
        <line x1="8987.72131267" y1="4533.18966546" x2="8987.72131267" y2="4161.18966546"/>
        <line x1="8915.72131267" y1="4533.18966546" x2="8915.72131267" y2="4161.18966546"/>
        <line x1="8987.72131267" y1="5097.18966546" x2="9023.72131267" y2="5097.18966546"/>
        <line x1="9023.72131267" y1="5097.18966546" x2="9023.72131267" y2="5169.18966546"/>
        <line x1="9191.72131267" y1="5097.18966546" x2="9191.72131267" y2="5169.18966546"/>
        <line x1="9221.72131267" y1="5097.18966546" x2="9221.72131267" y2="5169.18966546"/>
        <line x1="9605.72131267" y1="5097.18966546" x2="9605.72131267" y2="5169.18966546"/>
        <line x1="9635.72131267" y1="5097.18966546" x2="9635.72131267" y2="5169.18966546"/>
        <line x1="9803.72131267" y1="5097.18966546" x2="9803.72131267" y2="5169.18966546"/>
        <line x1="9869.72131267" y1="5097.18966546" x2="9869.72131267" y2="5169.18966546"/>
        <line x1="10457.72131267" y1="5097.18966546" x2="10457.72131267" y2="5169.18966546"/>
        <line x1="9191.72131267" y1="5097.18966546" x2="9221.72131267" y2="5097.18966546"/>
        <line x1="9191.72131267" y1="5169.18966546" x2="9221.72131267" y2="5169.18966546"/>
        <line x1="9605.72131267" y1="5097.18966546" x2="9635.72131267" y2="5097.18966546"/>
        <line x1="9605.72131267" y1="5169.18966546" x2="9635.72131267" y2="5169.18966546"/>
        <line x1="9803.72131267" y1="5097.18966546" x2="9869.72131267" y2="5097.18966546"/>
        <line x1="9803.72131267" y1="5169.18966546" x2="9869.72131267" y2="5169.18966546"/>
        <line x1="10457.72131267" y1="5097.18966546" x2="10493.72131267" y2="5097.18966546"/>
        <line x1="9023.72131267" y1="5169.18966546" x2="8309.72131267" y2="5169.18966546"/>
        <line x1="9023.72131267" y1="5097.18966546" x2="9191.72131267" y2="5097.18966546"/>
        <line x1="9023.72131267" y1="5169.18966546" x2="9191.72131267" y2="5169.18966546"/>
        <line x1="9023.72131267" y1="5127.18966546" x2="9191.72131267" y2="5127.18966546"/>
        <line x1="9023.72131267" y1="5139.18966546" x2="9191.72131267" y2="5139.18966546"/>
        <line x1="9605.72131267" y1="5097.18966546" x2="9605.72131267" y2="4713.18966546"/>
        <line x1="9605.72131267" y1="4713.18966546" x2="9587.72131267" y2="4713.18966546"/>
        <line x1="9587.72131267" y1="5097.18966546" x2="9605.72131267" y2="5097.18966546"/>
        <path d="M9587.72131267,4713.18966546 A424.5918761,424.5918761 0 0,0 9221.72131267,5097.18966546 "/>
        <line x1="9635.72131267" y1="5097.18966546" x2="9803.72131267" y2="5097.18966546"/>
        <line x1="9635.72131267" y1="5169.18966546" x2="9803.72131267" y2="5169.18966546"/>
        <line x1="9635.72131267" y1="5127.18966546" x2="9803.72131267" y2="5127.18966546"/>
        <line x1="9635.72131267" y1="5139.18966546" x2="9803.72131267" y2="5139.18966546"/>
        <line x1="9869.72131267" y1="5097.18966546" x2="10457.72131267" y2="5097.18966546"/>
        <line x1="9869.72131267" y1="5169.18966546" x2="10457.72131267" y2="5169.18966546"/>
        <line x1="9869.72131267" y1="5127.18966546" x2="10457.72131267" y2="5127.18966546"/>
        <line x1="9869.72131267" y1="5139.18966546" x2="10457.72131267" y2="5139.18966546"/>
        <line x1="10493.72131267" y1="5097.18966546" x2="10493.72131267" y2="5073.18966546"/>
        <line x1="10493.72131267" y1="4641.18966546" x2="10493.72131267" y2="4617.18966546"/>
        <line x1="10493.72131267" y1="4185.18966546" x2="10493.72131267" y2="4161.18966546"/>
        <line x1="10493.72131267" y1="3729.18966546" x2="10493.72131267" y2="3705.18966546"/>
        <line x1="10565.72131267" y1="5169.18966546" x2="10565.72131267" y2="5073.18966546"/>
        <line x1="10565.72131267" y1="4641.18966546" x2="10565.72131267" y2="4617.18966546"/>
        <line x1="10565.72131267" y1="4185.18966546" x2="10565.72131267" y2="4161.18966546"/>
        <line x1="10565.72131267" y1="3729.18966546" x2="10565.72131267" y2="3633.18966546"/>
        <line x1="10457.72131267" y1="5169.18966546" x2="10565.72131267" y2="5169.18966546"/>
        <line x1="10493.72131267" y1="5073.18966546" x2="10565.72131267" y2="5073.18966546"/>
        <line x1="10493.72131267" y1="4641.18966546" x2="10565.72131267" y2="4641.18966546"/>
        <line x1="10493.72131267" y1="4617.18966546" x2="10565.72131267" y2="4617.18966546"/>
        <line x1="10493.72131267" y1="4185.18966546" x2="10565.72131267" y2="4185.18966546"/>
        <line x1="10493.72131267" y1="4161.18966546" x2="10565.72131267" y2="4161.18966546"/>
        <line x1="10493.72131267" y1="3729.18966546" x2="10565.72131267" y2="3729.18966546"/>
        <line x1="10565.72131267" y1="5073.18966546" x2="10565.72131267" y2="4641.18966546"/>
        <line x1="10493.72131267" y1="5073.18966546" x2="10493.72131267" y2="4641.18966546"/>
        <line x1="10523.72131267" y1="5073.18966546" x2="10523.72131267" y2="4641.18966546"/>
        <line x1="10535.72131267" y1="5073.18966546" x2="10535.72131267" y2="4641.18966546"/>
        <line x1="10565.72131267" y1="4617.18966546" x2="10565.72131267" y2="4185.18966546"/>
        <line x1="10493.72131267" y1="4617.18966546" x2="10493.72131267" y2="4185.18966546"/>
        <line x1="10523.72131267" y1="4617.18966546" x2="10523.72131267" y2="4185.18966546"/>
        <line x1="10535.72131267" y1="4617.18966546" x2="10535.72131267" y2="4185.18966546"/>
        <line x1="10565.72131267" y1="4161.18966546" x2="10565.72131267" y2="3729.18966546"/>
        <line x1="10493.72131267" y1="4161.18966546" x2="10493.72131267" y2="3729.18966546"/>
        <line x1="10523.72131267" y1="4161.18966546" x2="10523.72131267" y2="3729.18966546"/>
        <line x1="10535.72131267" y1="4161.18966546" x2="10535.72131267" y2="3729.18966546"/>
        <line x1="8987.72131267" y1="4905.18966546" x2="8915.72131267" y2="4905.18966546"/>
        <line x1="8987.72131267" y1="4533.18966546" x2="8915.72131267" y2="4533.18966546"/>
        <line x1="8987.72131267" y1="4161.18966546" x2="8915.72131267" y2="4161.18966546"/>
        <line x1="8987.72131267" y1="3789.18966546" x2="8915.72131267" y2="3789.18966546"/>
        <line x1="10493.72131267" y1="3705.18966546" x2="10457.72131267" y2="3705.18966546"/>
        <line x1="10457.72131267" y1="3705.18966546" x2="10457.72131267" y2="3633.18966546"/>
        <line x1="10169.72131267" y1="3705.18966546" x2="10169.72131267" y2="3633.18966546"/>
        <line x1="10145.72131267" y1="3705.18966546" x2="10145.72131267" y2="3633.18966546"/>
        <line x1="9857.72131267" y1="3705.18966546" x2="9857.72131267" y2="3465.18966546"/>
        <line x1="9857.72131267" y1="3705.18966546" x2="9629.72131267" y2="3705.18966546"/>
        <line x1="10145.72131267" y1="3705.18966546" x2="10169.72131267" y2="3705.18966546"/>
        <line x1="10145.72131267" y1="3633.18966546" x2="10169.72131267" y2="3633.18966546"/>
        <line x1="10457.72131267" y1="3633.18966546" x2="10565.72131267" y2="3633.18966546"/>
        <line x1="9629.72131267" y1="3705.18966546" x2="9629.72131267" y2="3633.18966546"/>
        <line x1="9245.72131267" y1="3705.18966546" x2="9245.72131267" y2="3633.18966546"/>
        <line x1="9245.72131267" y1="3705.18966546" x2="8987.72131267" y2="3705.18966546"/>
        <line x1="8987.72131267" y1="3789.18966546" x2="8987.72131267" y2="3705.18966546"/>
        <line x1="10169.72131267" y1="3705.18966546" x2="10457.72131267" y2="3705.18966546"/>
        <line x1="10169.72131267" y1="3633.18966546" x2="10457.72131267" y2="3633.18966546"/>
        <line x1="10169.72131267" y1="3675.18966546" x2="10457.72131267" y2="3675.18966546"/>
        <line x1="10169.72131267" y1="3663.18966546" x2="10457.72131267" y2="3663.18966546"/>
        <line x1="9857.72131267" y1="3705.18966546" x2="10145.72131267" y2="3705.18966546"/>
        <line x1="9857.72131267" y1="3633.18966546" x2="10145.72131267" y2="3633.18966546"/>
        <line x1="9857.72131267" y1="3675.18966546" x2="10145.72131267" y2="3675.18966546"/>
        <line x1="9857.72131267" y1="3663.18966546" x2="10145.72131267" y2="3663.18966546"/>
        <line x1="9629.72131267" y1="3633.18966546" x2="9629.72131267" y2="3249.18966546"/>
        <line x1="9629.72131267" y1="3249.18966546" x2="9611.72131267" y2="3249.18966546"/>
        <line x1="9611.72131267" y1="3249.18966546" x2="9611.72131267" y2="3633.18966546"/>
        <line x1="9611.72131267" y1="3633.18966546" x2="9629.72131267" y2="3633.18966546"/>
        <path d="M9611.72131267,3249.18966546 A378.3024818,378.3024818 0 0,0 9245.72131267,3633.18966546 "/>
        <line x1="9629.72131267" y1="3633.18966546" x2="9785.72131267" y2="3633.18966546"/>
        <line x1="9785.72131267" y1="3633.18966546" x2="9785.72131267" y2="3465.18966546"/>
        <line x1="9785.72131267" y1="3465.18966546" x2="9857.72131267" y2="3465.18966546"/>
        <line x1="9785.72131267" y1="3081.18966546" x2="9857.72131267" y2="3081.18966546"/>
        <line x1="9785.72131267" y1="3081.18966546" x2="9785.72131267" y2="2823.18966546"/>
        <line x1="9857.72131267" y1="3081.18966546" x2="9857.72131267" y2="2811.18966546"/>
        <line x1="9785.72131267" y1="2823.18966546" x2="8993.72131267" y2="2823.18966546"/>
        <line x1="8993.72131267" y1="2823.18966546" x2="8993.72131267" y2="2853.18966546"/>
        <line x1="8993.72131267" y1="2853.18966546" x2="8903.72131267" y2="2853.18966546"/>
        <line x1="8903.72131267" y1="2853.18966546" x2="8903.72131267" y2="2697.18966546"/>
        <line x1="9857.72131267" y1="3081.18966546" x2="9857.72131267" y2="3465.18966546"/>
        <line x1="9785.72131267" y1="3081.18966546" x2="9785.72131267" y2="3465.18966546"/>
        <line x1="9815.72131267" y1="3465.18966546" x2="9815.72131267" y2="3081.18966546"/>
        <line x1="9827.72131267" y1="3465.18966546" x2="9827.72131267" y2="3081.18966546"/>
        <line x1="8903.72131267" y1="2697.18966546" x2="8945.72131267" y2="2697.18966546"/>
        <line x1="8894.72131267" y1="2349.18966546" x2="8936.72131267" y2="2349.18966546"/>
        <line x1="8894.72131267" y1="2349.18966546" x2="8894.72131267" y2="2301.18966546"/>
        <line x1="8894.72131267" y1="2301.18966546" x2="8837.72131267" y2="2301.18966546"/>
        <line x1="8837.72131267" y1="2301.18966546" x2="8837.72131267" y2="2259.18966546"/>
        <line x1="8477.72131267" y1="2301.18966546" x2="8477.72131267" y2="2259.18966546"/>
        <line x1="8477.72131267" y1="2301.18966546" x2="8411.72131267" y2="2301.18966546"/>
        <line x1="8411.72131267" y1="2301.18966546" x2="8411.72131267" y2="2352.18966546"/>
        <line x1="8411.72131267" y1="2352.18966546" x2="8369.72131267" y2="2352.18966546"/>
        <line x1="8411.72131267" y1="2700.18966546" x2="8369.72131267" y2="2700.18966546"/>
        <line x1="8411.72131267" y1="2700.18966546" x2="8411.72131267" y2="2820.18966546"/>
        <line x1="8411.72131267" y1="2820.18966546" x2="8339.72131267" y2="2820.18966546"/>
        <line x1="8339.72131267" y1="2820.18966546" x2="8339.72131267" y2="3264.18966546"/>
        <line x1="8339.72131267" y1="3264.18966546" x2="8429.72131267" y2="3264.18966546"/>
        <line x1="8429.72131267" y1="3264.18966546" x2="8429.72131267" y2="3306.18966546"/>
        <line x1="8945.72131267" y1="2697.18966546" x2="9293.72131267" y2="2697.18966546"/>
        <line x1="9293.72131267" y1="2697.18966546" x2="9293.72131267" y2="2679.18966546"/>
        <line x1="9293.72131267" y1="2679.18966546" x2="8945.72131267" y2="2679.18966546"/>
        <line x1="8945.72131267" y1="2679.18966546" x2="8945.72131267" y2="2697.18966546"/>
        <path d="M9293.72131267,2679.18966546 A342.79188131,342.79188131 0 0,0 8936.72131267,2349.18966546 "/>
        <line x1="8477.72131267" y1="2301.18966546" x2="8815.41552672" y2="2425.9398871"/>
        <line x1="8815.41552672" y1="2425.9398871" x2="8820.294359" y2="2412.7330694"/>
        <line x1="8820.294359" y1="2412.7330694" x2="8482.60014496" y2="2287.98284777"/>
        <line x1="8482.60014496" y1="2287.98284777" x2="8477.72131267" y2="2301.18966546"/>
        <path d="M8819.57386744,2414.6834133 A326.49875951,326.49875951 0 0,0 8837.72131267,2301.18966546 "/>
        <line x1="8369.72131267" y1="2700.18966546" x2="8369.72131267" y2="2700.18966546"/>
        <line x1="8369.72131267" y1="2700.18966546" x2="8021.72131267" y2="2700.18966546"/>
        <line x1="8021.72131267" y1="2700.18966546" x2="8021.72131267" y2="2682.18966546"/>
        <line x1="8021.72131267" y1="2682.18966546" x2="8369.72131267" y2="2682.18966546"/>
        <line x1="8369.72131267" y1="2682.18966546" x2="8369.72131267" y2="2700.18966546"/>
        <path d="M8363.83647998,2352.18966546 A342.24464973,342.24464973 0 0,0 8021.72131267,2682.18966546 "/>
        <line x1="8987.72131267" y1="4533.18966546" x2="8987.72131267" y2="4905.18966546"/>
        <line x1="8915.72131267" y1="4533.18966546" x2="8915.72131267" y2="4905.18966546"/>
        <line x1="8957.72131267" y1="4905.18966546" x2="8957.72131267" y2="4533.18966546"/>
        <line x1="8945.72131267" y1="4905.18966546" x2="8945.72131267" y2="4533.18966546"/>
        <line x1="8987.72131267" y1="3789.18966546" x2="8987.72131267" y2="4161.18966546"/>
        <line x1="8915.72131267" y1="3789.18966546" x2="8915.72131267" y2="4161.18966546"/>
        <line x1="8945.72131267" y1="4161.18966546" x2="8945.72131267" y2="3789.18966546"/>
        <line x1="8957.72131267" y1="4161.18966546" x2="8957.72131267" y2="3789.18966546"/>
        <line x1="8915.72131267" y1="5085.18966546" x2="8237.72131267" y2="5085.18966546"/>
        <line x1="8915.72131267" y1="3789.18966546" x2="8915.72131267" y2="3633.18966546"/>
        <line x1="9245.72131267" y1="3633.18966546" x2="8915.72131267" y2="3633.18966546"/>
        <line x1="8237.72131267" y1="5085.18966546" x2="8237.72131267" y2="5235.18966546"/>
        <line x1="8309.72131267" y1="5169.18966546" x2="8309.72131267" y2="5235.18966546"/>
        <line x1="8237.72131267" y1="5235.18966546" x2="8309.72131267" y2="5235.18966546"/>
        <line x1="8237.72131267" y1="5457.18966546" x2="8309.72131267" y2="5457.18966546"/>
        <line x1="8237.72131267" y1="5457.18966546" x2="8237.72131267" y2="5487.18966546"/>
        <line x1="8225.72131267" y1="5487.18966546" x2="8225.72131267" y2="5559.18966546"/>
        <line x1="7853.72131267" y1="5487.18966546" x2="7853.72131267" y2="5559.18966546"/>
        <line x1="7799.72131267" y1="5487.18966546" x2="7799.72131267" y2="5559.18966546"/>
        <line x1="7427.72131267" y1="5487.18966546" x2="7427.72131267" y2="5559.18966546"/>
        <line x1="7427.72131267" y1="5487.18966546" x2="7415.72131267" y2="5487.18966546"/>
        <line x1="7415.72131267" y1="5487.18966546" x2="7415.72131267" y2="5457.18966546"/>
        <line x1="7415.72131267" y1="5457.18966546" x2="7343.72131267" y2="5457.18966546"/>
        <line x1="7415.72131267" y1="5235.18966546" x2="7343.72131267" y2="5235.18966546"/>
        <line x1="7415.72131267" y1="5235.18966546" x2="7415.72131267" y2="5085.18966546"/>
        <line x1="7343.72131267" y1="5235.18966546" x2="7343.72131267" y2="5160.18966546"/>
        <line x1="7415.72131267" y1="5085.18966546" x2="6725.72131267" y2="5085.18966546"/>
        <line x1="7343.72131267" y1="5157.18966546" x2="6653.72131267" y2="5157.18966546"/>
        <line x1="6725.72131267" y1="5085.18966546" x2="6725.72131267" y2="4053.18966546"/>
        <line x1="6725.72131267" y1="4053.18966546" x2="6875.72131267" y2="4053.18966546"/>
        <line x1="6875.72131267" y1="4053.18966546" x2="6875.72131267" y2="3777.18966546"/>
        <line x1="6875.72131267" y1="3777.18966546" x2="6725.72131267" y2="3777.18966546"/>
        <line x1="6725.72131267" y1="3777.18966546" x2="6725.72131267" y2="3729.18966546"/>
        <line x1="6725.72131267" y1="3729.18966546" x2="6671.72131267" y2="3729.18966546"/>
        <line x1="6725.72131267" y1="3369.18966546" x2="6671.72131267" y2="3369.18966546"/>
        <line x1="6725.72131267" y1="3369.18966546" x2="6725.72131267" y2="3327.18966546"/>
        <line x1="6725.72131267" y1="3327.18966546" x2="8429.72131267" y2="3327.18966546"/>
        <line x1="8915.72131267" y1="4905.18966546" x2="8915.72131267" y2="5085.18966546"/>
        <line x1="7343.72131267" y1="5457.18966546" x2="7343.72131267" y2="5559.18966546"/>
        <line x1="7427.72131267" y1="5559.18966546" x2="7343.72131267" y2="5559.18966546"/>
        <line x1="8309.72131267" y1="5457.18966546" x2="8309.72131267" y2="5559.18966546"/>
        <line x1="8225.72131267" y1="5559.18966546" x2="8309.72131267" y2="5559.18966546"/>
        <line x1="8309.72131267" y1="5235.18966546" x2="8309.72131267" y2="5457.18966546"/>
        <line x1="8237.72131267" y1="5235.18966546" x2="8237.72131267" y2="5457.18966546"/>
        <line x1="8237.72131267" y1="5487.18966546" x2="8225.72131267" y2="5487.18966546"/>
        <line x1="7853.72131267" y1="5487.18966546" x2="7799.72131267" y2="5487.18966546"/>
        <line x1="7853.72131267" y1="5559.18966546" x2="7799.72131267" y2="5559.18966546"/>
        <line x1="8279.72131267" y1="5235.18966546" x2="8279.72131267" y2="5457.18966546"/>
        <line x1="8267.72131267" y1="5235.18966546" x2="8267.72131267" y2="5457.18966546"/>
        <line x1="7415.72131267" y1="5235.18966546" x2="7415.72131267" y2="5457.18966546"/>
        <line x1="7343.72131267" y1="5235.18966546" x2="7343.72131267" y2="5457.18966546"/>
        <line x1="7385.72131267" y1="5235.18966546" x2="7385.72131267" y2="5457.18966546"/>
        <line x1="7373.72131267" y1="5235.18966546" x2="7373.72131267" y2="5457.18966546"/>
        <line x1="7427.72131267" y1="5559.18966546" x2="7799.72131267" y2="5559.18966546"/>
        <line x1="7427.72131267" y1="5487.18966546" x2="7799.72131267" y2="5487.18966546"/>
        <line x1="7427.72131267" y1="5517.18966546" x2="7799.72131267" y2="5517.18966546"/>
        <line x1="7427.72131267" y1="5529.18966546" x2="7799.72131267" y2="5529.18966546"/>
        <line x1="7853.72131267" y1="5559.18966546" x2="8225.72131267" y2="5559.18966546"/>
        <line x1="7853.72131267" y1="5487.18966546" x2="8225.72131267" y2="5487.18966546"/>
        <line x1="7853.72131267" y1="5517.18966546" x2="8225.72131267" y2="5517.18966546"/>
        <line x1="7853.72131267" y1="5529.18966546" x2="8225.72131267" y2="5529.18966546"/>
        <line x1="6725.72131267" y1="3729.18966546" x2="7085.72131267" y2="3729.18966546"/>
        <line x1="7085.72131267" y1="3729.18966546" x2="7085.72131267" y2="3711.18966546"/>
        <line x1="7085.72131267" y1="3711.18966546" x2="6725.72131267" y2="3711.18966546"/>
        <line x1="6725.72131267" y1="3711.18966546" x2="6725.72131267" y2="3729.18966546"/>
        <path d="M7085.72131267,3711.18966546 A354.32382634,354.32382634 0 0,0 6725.72131267,3369.18966546 "/>
        <line x1="8945.72131267" y1="2697.18966546" x2="8945.72131267" y2="2739.18966546"/>
        <line x1="8945.72131267" y1="2739.18966546" x2="10025.72131267" y2="2739.18966546"/>
        <line x1="10025.72131267" y1="2739.18966546" x2="10025.72131267" y2="2811.18966546"/>
        <line x1="10397.72131267" y1="2739.18966546" x2="10397.72131267" y2="2811.18966546"/>
        <line x1="10397.72131267" y1="2739.18966546" x2="10916.72131267" y2="2739.18966546"/>
        <line x1="10397.72131267" y1="2811.18966546" x2="10988.72131267" y2="2811.18966546"/>
        <line x1="10916.72131267" y1="2739.18966546" x2="10916.72131267" y2="2283.18966546"/>
        <line x1="10988.72131267" y1="2811.18966546" x2="10988.72131267" y2="2283.18966546"/>
        <line x1="10916.72131267" y1="2283.18966546" x2="10988.72131267" y2="2283.18966546"/>
        <line x1="10916.72131267" y1="1911.18966546" x2="10988.72131267" y2="1911.18966546"/>
        <line x1="10916.72131267" y1="1911.18966546" x2="10916.72131267" y2="1365.18966546"/>
        <line x1="10988.72131267" y1="1911.18966546" x2="10988.72131267" y2="1365.18966546"/>
        <line x1="10916.72131267" y1="1365.18966546" x2="10988.72131267" y2="1365.18966546"/>
        <line x1="10916.72131267" y1="993.18966546" x2="10988.72131267" y2="993.18966546"/>
        <line x1="10916.72131267" y1="993.18966546" x2="10916.72131267" y2="555.18966546"/>
        <line x1="10988.72131267" y1="993.18966546" x2="10988.72131267" y2="483.18966546"/>
        <line x1="10916.72131267" y1="555.18966546" x2="10160.72131267" y2="555.18966546"/>
        <line x1="10988.72131267" y1="483.18966546" x2="10160.72131267" y2="483.18966546"/>
        <line x1="10160.72131267" y1="555.18966546" x2="10160.72131267" y2="483.18966546"/>
        <line x1="9788.72131267" y1="555.18966546" x2="9788.72131267" y2="483.18966546"/>
        <line x1="9788.72131267" y1="555.18966546" x2="9524.72131267" y2="555.18966546"/>
        <line x1="9524.72131267" y1="555.18966546" x2="9524.72131267" y2="609.18966546"/>
        <line x1="9524.72131267" y1="609.18966546" x2="9482.72131267" y2="609.18966546"/>
        <line x1="9524.72131267" y1="897.18966546" x2="9482.72131267" y2="897.18966546"/>
        <line x1="9524.72131267" y1="897.18966546" x2="9524.72131267" y2="1329.18966546"/>
        <line x1="9524.72131267" y1="1329.18966546" x2="8936.72131267" y2="1329.18966546"/>
        <line x1="8936.72131267" y1="1329.18966546" x2="8936.72131267" y2="2349.18966546"/>
        <line x1="10025.72131267" y1="2811.18966546" x2="10397.72131267" y2="2811.18966546"/>
        <line x1="10025.72131267" y1="2739.18966546" x2="10397.72131267" y2="2739.18966546"/>
        <line x1="10025.72131267" y1="2769.18966546" x2="10397.72131267" y2="2769.18966546"/>
        <line x1="10025.72131267" y1="2781.18966546" x2="10397.72131267" y2="2781.18966546"/>
        <line x1="9788.72131267" y1="555.18966546" x2="10160.72131267" y2="555.18966546"/>
        <line x1="9788.72131267" y1="483.18966546" x2="10160.72131267" y2="483.18966546"/>
        <line x1="9788.72131267" y1="513.18966546" x2="10160.72131267" y2="513.18966546"/>
        <line x1="9788.72131267" y1="525.18966546" x2="10160.72131267" y2="525.18966546"/>
        <line x1="10988.72131267" y1="1365.18966546" x2="10988.72131267" y2="993.18966546"/>
        <line x1="10916.72131267" y1="1365.18966546" x2="10916.72131267" y2="993.18966546"/>
        <line x1="10946.72131267" y1="1365.18966546" x2="10946.72131267" y2="993.18966546"/>
        <line x1="10958.72131267" y1="1365.18966546" x2="10958.72131267" y2="993.18966546"/>
        <line x1="10988.72131267" y1="2283.18966546" x2="10988.72131267" y2="1911.18966546"/>
        <line x1="10916.72131267" y1="2283.18966546" x2="10916.72131267" y2="1911.18966546"/>
        <line x1="10946.72131267" y1="2283.18966546" x2="10946.72131267" y2="1911.18966546"/>
        <line x1="10958.72131267" y1="2283.18966546" x2="10958.72131267" y2="1911.18966546"/>
        <line x1="9524.72131267" y1="609.18966546" x2="9812.72131267" y2="609.18966546"/>
        <line x1="9812.72131267" y1="609.18966546" x2="9812.72131267" y2="627.18966546"/>
        <line x1="9812.72131267" y1="627.18966546" x2="9524.72131267" y2="627.18966546"/>
        <line x1="9524.72131267" y1="627.18966546" x2="9524.72131267" y2="609.18966546"/>
        <path d="M9524.72131267,897.18966546 A282.41080388,282.41080388 0 0,0 9812.72131267,627.18966546 "/>
        <line x1="9482.72131267" y1="609.18966546" x2="9482.72131267" y2="567.18966546"/>
        <line x1="9482.72131267" y1="567.18966546" x2="9422.72131267" y2="567.18966546"/>
        <line x1="9788.72131267" y1="483.18966546" x2="9422.72131267" y2="483.18966546"/>
        <line x1="9422.72131267" y1="567.18966546" x2="9422.72131267" y2="483.18966546"/>
        <line x1="9011.72131267" y1="555.18966546" x2="9011.72131267" y2="483.18966546"/>
        <line x1="9482.72131267" y1="897.18966546" x2="9482.72131267" y2="1278.18966546"/>
        <line x1="9482.72131267" y1="1278.18966546" x2="8948.72131267" y2="1278.18966546"/>
        <line x1="8948.72131267" y1="1278.18966546" x2="8948.72131267" y2="1134.18966546"/>
        <line x1="8948.72131267" y1="1134.18966546" x2="8888.72131267" y2="1134.18966546"/>
        <line x1="8888.72131267" y1="1134.18966546" x2="8888.72131267" y2="1506.18966546"/>
        <line x1="8888.72131267" y1="1506.18966546" x2="8396.72131267" y2="1506.18966546"/>
        <line x1="8396.72131267" y1="1506.18966546" x2="8396.72131267" y2="1101.20501714"/>
        <line x1="8550.93138314" y1="555.18966546" x2="8550.93138314" y2="771.18966546"/>
        <line x1="8550.93138314" y1="771.18966546" x2="8928.93138314" y2="771.18966546"/>
        <line x1="8928.93138314" y1="771.18966546" x2="8928.93138314" y2="555.18966546"/>
        <line x1="9011.72131267" y1="555.18966546" x2="8880.13182999" y2="555.18966546"/>
        <line x1="8518.94800068" y1="555.18966546" x2="8411.72131267" y2="555.18966546"/>
        <line x1="8411.72131267" y1="555.18966546" x2="8411.72131267" y2="825.18966546"/>
        <line x1="8411.72131267" y1="825.18966546" x2="8363.72131267" y2="825.18966546"/>
        <line x1="8363.72131267" y1="825.18966546" x2="8087.72131267" y2="825.18966546"/>
        <line x1="8369.72131267" y1="1101.20501714" x2="8396.03052203" y2="1101.20501714"/>
        <line x1="8363.72131267" y1="843.18966546" x2="8087.72131267" y2="843.18966546"/>
        <line x1="8429.72131267" y1="3264.18966546" x2="8429.72131267" y2="3327.18966546"/>
        <line x1="9011.72131267" y1="555.18966546" x2="9422.72131267" y2="555.18966546"/>
        <line x1="9011.72131267" y1="483.18966546" x2="9422.72131267" y2="483.18966546"/>
        <line x1="9011.72131267" y1="513.18966546" x2="9422.72131267" y2="513.18966546"/>
        <line x1="9011.72131267" y1="525.18966546" x2="9422.72131267" y2="525.18966546"/>
        <line x1="8363.72131267" y1="555.18966546" x2="8363.72131267" y2="825.18966546"/>
        <line x1="8165.72131267" y1="555.18966546" x2="8165.72131267" y2="483.18966546"/>
        <line x1="9011.72131267" y1="483.18966546" x2="8880.13182999" y2="483.18966546"/>
        <line x1="8518.94800068" y1="483.18966546" x2="8165.72131267" y2="483.18966546"/>
        <line x1="7793.72131267" y1="483.18966546" x2="7793.72131267" y2="555.18966546"/>
        <line x1="7793.72131267" y1="555.18966546" x2="7319.72131267" y2="555.18966546"/>
        <line x1="7319.72131267" y1="555.18966546" x2="7319.72131267" y2="483.18966546"/>
        <line x1="7793.72131267" y1="483.18966546" x2="7319.72131267" y2="483.18966546"/>
        <line x1="6947.72131267" y1="483.18966546" x2="6947.72131267" y2="555.18966546"/>
        <line x1="6947.72131267" y1="555.18966546" x2="6713.72131267" y2="555.18966546"/>
        <line x1="6713.72131267" y1="555.18966546" x2="6713.72131267" y2="2005.74735951"/>
        <line x1="6713.72131267" y1="2355.18966546" x2="6671.72131267" y2="2355.18966546"/>
        <line x1="6671.72131267" y1="2005.74735951" x2="6671.72131267" y2="558.18966546"/>
        <line x1="6713.72131267" y1="2709.18966546" x2="6671.72131267" y2="2709.18966546"/>
        <line x1="6713.72131267" y1="2733.76419374" x2="6713.72131267" y2="2751.18966546"/>
        <line x1="6713.72131267" y1="2751.18966546" x2="8369.72131267" y2="2751.18966546"/>
        <line x1="8363.72131267" y1="555.18966546" x2="8165.72131267" y2="555.18966546"/>
        <line x1="8369.72131267" y1="2700.18966546" x2="8369.72131267" y2="2751.18966546"/>
        <line x1="8369.72131267" y1="2352.13908088" x2="8369.72131267" y2="1101.20501714"/>
        <line x1="8739.93138314" y1="689.80727575" x2="8739.93138314" y2="655.99586437"/>
        <line x1="8723.4013756" y1="672.90157006" x2="8756.66794745" y2="672.90157006"/>
        <line x1="8550.93138314" y1="584.24611224" x2="8928.93138314" y2="584.24611224"/>
        <line x1="9482.72131267" y1="1236.18966546" x2="8948.72131267" y2="1236.18966546"/>
        <path d="M9215.72131267,1229.33021185 C9275.37082045,1229.33021185 9323.82431634,1162.22254585 9323.82431634,1079.60850179 C9323.82431634,996.99445772 9275.37082045,929.88679172 9215.72131267,929.88679172 C9156.07180489,929.88679172 9107.61830899,996.99445772 9107.61830899,1079.60850179 C9107.61830899,1162.22254585 9156.07180489,1229.33021185 9215.72131267,1229.33021185 Z "/>
        <line x1="8363.72131267" y1="843.18966546" x2="8363.72131267" y2="825.18966546"/>
        <line x1="8087.72131267" y1="843.18966546" x2="8087.72131267" y2="825.18966546"/>
        <path d="M8087.72131267,843.18966546 A270.29354968,270.29354968 0 0,0 8369.72131267,1101.20501714 "/>
        <line x1="8888.72131267" y1="1134.18966546" x2="8396.72131267" y2="1134.18966546"/>
        <line x1="8739.93138314" y1="1347.13902736" x2="8739.93138314" y2="1313.32761598"/>
        <line x1="8723.4013756" y1="1330.23332167" x2="8756.66794745" y2="1330.23332167"/>
        <line x1="6713.72131267" y1="3252.18966546" x2="6671.72131267" y2="3252.18966546"/>
        <line x1="6713.72131267" y1="2892.18966546" x2="6671.72131267" y2="2892.18966546"/>
        <line x1="6671.72131267" y1="2733.76419374" x2="6671.72131267" y2="2892.18966546"/>
        <line x1="6713.72131267" y1="3252.18966546" x2="7073.72131267" y2="3252.18966546"/>
        <line x1="7073.72131267" y1="3252.18966546" x2="7073.72131267" y2="3234.18966546"/>
        <line x1="7073.72131267" y1="3234.18966546" x2="6713.72131267" y2="3234.18966546"/>
        <line x1="6713.72131267" y1="3234.18966546" x2="6713.72131267" y2="3252.18966546"/>
        <path d="M7073.72131267,3234.18966546 A354.32382634,354.32382634 0 0,0 6713.72131267,2892.18966546 "/>
        <line x1="6713.72131267" y1="2709.18966546" x2="7073.72131267" y2="2709.18966546"/>
        <line x1="7073.72131267" y1="2709.18966546" x2="7073.72131267" y2="2691.18966546"/>
        <line x1="7073.72131267" y1="2691.18966546" x2="6713.72131267" y2="2691.18966546"/>
        <line x1="6713.72131267" y1="2691.18966546" x2="6713.72131267" y2="2709.18966546"/>
        <path d="M7073.72131267,2691.18966546 A344.10417039,344.10417039 0 0,0 6713.72131267,2355.18966546 "/>
        <line x1="6713.72131267" y1="3264.18966546" x2="8339.72131267" y2="3264.18966546"/>
        <line x1="6713.72131267" y1="2820.18966546" x2="8339.72131267" y2="2820.18966546"/>
        <line x1="6713.72131267" y1="2892.18966546" x2="6713.72131267" y2="2820.18966546"/>
        <line x1="6713.72131267" y1="3252.18966546" x2="6713.72131267" y2="3264.18966546"/>
        <line x1="6671.72131267" y1="3729.18966546" x2="6671.72131267" y2="4224.18966546"/>
        <line x1="6671.72131267" y1="4224.18966546" x2="6293.72131267" y2="4224.18966546"/>
        <line x1="6293.72131267" y1="4224.18966546" x2="6293.72131267" y2="4296.18966546"/>
        <line x1="6653.72131267" y1="4296.18966546" x2="6293.72131267" y2="4296.18966546"/>
        <line x1="5921.72131267" y1="4296.18966546" x2="5921.72131267" y2="4224.18966546"/>
        <line x1="5921.72131267" y1="4224.18966546" x2="5855.72131267" y2="4224.18966546"/>
        <line x1="5855.72131267" y1="4224.18966546" x2="5855.72131267" y2="4296.18966546"/>
        <line x1="5921.72131267" y1="4296.18966546" x2="5855.72131267" y2="4296.18966546"/>
        <line x1="5477.72131267" y1="4296.18966546" x2="5477.72131267" y2="4224.18966546"/>
        <line x1="5477.72131267" y1="4224.18966546" x2="5399.72131267" y2="4224.18966546"/>
        <line x1="5399.72131267" y1="4224.18966546" x2="5399.72131267" y2="4296.18966546"/>
        <line x1="5477.72131267" y1="4296.18966546" x2="5399.72131267" y2="4296.18966546"/>
        <line x1="4991.72131267" y1="4296.18966546" x2="4991.72131267" y2="4224.18966546"/>
        <line x1="4991.72131267" y1="4224.18966546" x2="4655.72131267" y2="4224.18966546"/>
        <line x1="4655.72131267" y1="4224.18966546" x2="4655.72131267" y2="4170.18966546"/>
        <line x1="6653.72131267" y1="4296.18966546" x2="6653.72131267" y2="5157.18966546"/>
        <line x1="6293.72131267" y1="4296.18966546" x2="6293.72131267" y2="4224.18966546"/>
        <line x1="5921.72131267" y1="4296.18966546" x2="5921.72131267" y2="4224.18966546"/>
        <line x1="5921.72131267" y1="4296.18966546" x2="6293.72131267" y2="4296.18966546"/>
        <line x1="5921.72131267" y1="4224.18966546" x2="6293.72131267" y2="4224.18966546"/>
        <line x1="5921.72131267" y1="4254.18966546" x2="6293.72131267" y2="4254.18966546"/>
        <line x1="5921.72131267" y1="4266.18966546" x2="6293.72131267" y2="4266.18966546"/>
        <line x1="5855.72131267" y1="4296.18966546" x2="5855.72131267" y2="4224.18966546"/>
        <line x1="5483.72131267" y1="4296.18966546" x2="5483.72131267" y2="4224.18966546"/>
        <line x1="5483.72131267" y1="4296.18966546" x2="5855.72131267" y2="4296.18966546"/>
        <line x1="5483.72131267" y1="4224.18966546" x2="5855.72131267" y2="4224.18966546"/>
        <line x1="5483.72131267" y1="4254.18966546" x2="5855.72131267" y2="4254.18966546"/>
        <line x1="5483.72131267" y1="4266.18966546" x2="5855.72131267" y2="4266.18966546"/>
        <line x1="4991.72131267" y1="4296.18966546" x2="4313.72131267" y2="4296.18966546"/>
        <line x1="4655.72131267" y1="4170.18966546" x2="4607.72131267" y2="4170.18966546"/>
        <line x1="4703.72131267" y1="3810.18966546" x2="4607.72131267" y2="3810.18966546"/>
        <line x1="4607.72131267" y1="4224.18966546" x2="4607.72131267" y2="4170.18966546"/>
        <line x1="4655.72131267" y1="3810.18966546" x2="4655.72131267" y2="942.18966546"/>
        <line x1="4703.72131267" y1="942.18966546" x2="4655.72131267" y2="942.18966546"/>
        <line x1="4655.72131267" y1="594.18966546" x2="4655.72131267" y2="558.18966546"/>
        <line x1="4655.72131267" y1="594.18966546" x2="4703.72131267" y2="594.18966546"/>
        <line x1="4703.72131267" y1="594.18966546" x2="4703.72131267" y2="558.18966546"/>
        <line x1="5460.57673752" y1="558.18966546" x2="6671.72131267" y2="558.18966546"/>
        <line x1="10025.72131267" y1="2811.18966546" x2="9857.72131267" y2="2811.18966546"/>
        <line x1="4655.72131267" y1="558.18966546" x2="3935.72131267" y2="558.18966546"/>
        <line x1="3935.72131267" y1="558.18966546" x2="3935.72131267" y2="1944.18966546"/>
        <line x1="3935.72131267" y1="1944.18966546" x2="4655.72131267" y2="1944.18966546"/>
        <line x1="4655.72131267" y1="942.18966546" x2="4655.72131267" y2="1944.18966546"/>
        <line x1="4691.71477487" y1="1098.18966546" x2="4655.72131267" y2="1098.18966546"/>
        <line x1="4691.71477487" y1="1272.18966546" x2="4655.72131267" y2="1272.18966546"/>
        <line x1="4691.71477487" y1="1272.18966546" x2="4691.71477487" y2="1098.18966546"/>
        <line x1="3863.72131267" y1="1992.18966546" x2="4607.72131267" y2="1992.18966546"/>
        <line x1="4607.72131267" y1="1992.18966546" x2="4607.72131267" y2="3012.18966546"/>
        <line x1="4607.72131267" y1="3012.18966546" x2="4607.72131267" y2="3810.18966546"/>
        <line x1="4607.72131267" y1="4224.18966546" x2="4313.72131267" y2="4224.18966546"/>
        <line x1="4313.72131267" y1="4224.18966546" x2="4313.72131267" y2="4296.18966546"/>
        <line x1="3941.72131267" y1="4296.18966546" x2="3941.72131267" y2="4224.18966546"/>
        <line x1="3941.72131267" y1="4224.18966546" x2="3587.72131267" y2="4224.18966546"/>
        <line x1="3587.72131267" y1="4224.18966546" x2="3587.72131267" y2="4296.18966546"/>
        <line x1="3203.72131267" y1="4296.18966546" x2="3203.72131267" y2="4224.18966546"/>
        <line x1="3203.72131267" y1="4224.18966546" x2="2981.72131267" y2="4224.18966546"/>
        <line x1="2981.72131267" y1="4224.18966546" x2="2981.72131267" y2="4005.18966546"/>
        <line x1="2981.72131267" y1="4005.18966546" x2="2861.72131267" y2="4005.18966546"/>
        <line x1="2861.72131267" y1="4005.18966546" x2="2861.72131267" y2="4077.18966546"/>
        <line x1="2909.72131267" y1="4077.18966546" x2="2861.72131267" y2="4077.18966546"/>
        <line x1="2429.72131267" y1="4077.18966546" x2="2429.72131267" y2="4005.18966546"/>
        <line x1="2429.72131267" y1="4005.18966546" x2="1829.72131267" y2="4005.18966546"/>
        <line x1="1829.72131267" y1="4005.18966546" x2="1829.72131267" y2="3859.38608416"/>
        <line x1="3203.72131267" y1="4296.18966546" x2="2909.72131267" y2="4296.18966546"/>
        <line x1="2909.72131267" y1="4296.18966546" x2="2909.72131267" y2="4077.18966546"/>
        <line x1="3587.72131267" y1="4296.18966546" x2="3941.72131267" y2="4296.18966546"/>
        <line x1="3941.72131267" y1="4296.18966546" x2="4313.72131267" y2="4296.18966546"/>
        <line x1="3941.72131267" y1="4224.18966546" x2="4313.72131267" y2="4224.18966546"/>
        <line x1="3941.72131267" y1="4254.18966546" x2="4313.72131267" y2="4254.18966546"/>
        <line x1="3941.72131267" y1="4266.18966546" x2="4313.72131267" y2="4266.18966546"/>
        <line x1="2429.72131267" y1="4077.18966546" x2="2861.72131267" y2="4077.18966546"/>
        <line x1="2429.72131267" y1="4005.18966546" x2="2861.72131267" y2="4005.18966546"/>
        <line x1="2429.72131267" y1="4035.18966546" x2="2861.72131267" y2="4035.18966546"/>
        <line x1="2429.72131267" y1="4047.18966546" x2="2861.72131267" y2="4047.18966546"/>
        <line x1="1757.72131267" y1="4077.18966546" x2="1757.72131267" y2="3859.38608416"/>
        <line x1="2429.72131267" y1="4077.18966546" x2="1757.72131267" y2="4077.18966546"/>
        <line x1="1829.72131267" y1="2707.38608416" x2="1829.72131267" y2="1692.18966546"/>
        <line x1="3887.72131267" y1="558.18966546" x2="3887.72131267" y2="1944.18966546"/>
        <line x1="3887.72131267" y1="558.18966546" x2="3173.72131267" y2="558.18966546"/>
        <line x1="3173.72131267" y1="558.18966546" x2="3173.72131267" y2="1944.18966546"/>
        <line x1="3125.72131267" y1="558.18966546" x2="3125.72131267" y2="1944.18966546"/>
        <line x1="3125.72131267" y1="558.18966546" x2="2459.72131267" y2="558.18966546"/>
        <line x1="2459.72131267" y1="558.18966546" x2="2459.72131267" y2="486.18966546"/>
        <line x1="1883.72131267" y1="486.18966546" x2="1757.72131267" y2="486.18966546"/>
        <line x1="1883.72131267" y1="486.18966546" x2="1883.72131267" y2="558.18966546"/>
        <line x1="1883.72131267" y1="558.18966546" x2="1829.72131267" y2="558.18966546"/>
        <line x1="1829.72131267" y1="558.18966546" x2="1829.72131267" y2="828.18966546"/>
        <line x1="1757.72131267" y1="486.18966546" x2="1757.72131267" y2="828.18966546"/>
        <line x1="1829.72131267" y1="828.18966546" x2="1757.72131267" y2="828.18966546"/>
        <line x1="1757.72131267" y1="1692.18966546" x2="1829.72131267" y2="1692.18966546"/>
        <line x1="2285.72131267" y1="1992.18966546" x2="3503.67485817" y2="1996.75143467"/>
        <line x1="3503.72131267" y1="1992.18966546" x2="3503.72131267" y2="1944.18966546"/>
        <line x1="3863.72131267" y1="1944.18966546" x2="3887.72131267" y2="1944.18966546"/>
        <line x1="3863.72131267" y1="1944.18966546" x2="3863.72131267" y2="1992.18966546"/>
        <line x1="3503.72131267" y1="1944.18966546" x2="3173.72131267" y2="1944.18966546"/>
        <line x1="3125.72131267" y1="1944.18966546" x2="2285.72131267" y2="1944.18966546"/>
        <line x1="1757.72131267" y1="2707.38608416" x2="1757.72131267" y2="1888.16470033"/>
        <line x1="2459.72131267" y1="486.18966546" x2="5088.57673752" y2="486.18966546"/>
        <line x1="1883.72131267" y1="558.18966546" x2="2459.72131267" y2="558.18966546"/>
        <line x1="1883.72131267" y1="486.18966546" x2="2459.72131267" y2="486.18966546"/>
        <line x1="1883.72131267" y1="516.18966546" x2="2459.72131267" y2="516.18966546"/>
        <line x1="1883.72131267" y1="528.18966546" x2="2459.72131267" y2="528.18966546"/>
        <line x1="1829.72131267" y1="828.18966546" x2="1829.72131267" y2="1692.18966546"/>
        <line x1="1757.72131267" y1="828.18966546" x2="1757.72131267" y2="1692.18966546"/>
        <line x1="1799.72131267" y1="1692.18966546" x2="1799.72131267" y2="828.18966546"/>
        <line x1="1787.72131267" y1="1692.18966546" x2="1787.72131267" y2="828.18966546"/>
        <line x1="8213.72131267" y1="2820.18966546" x2="8213.72131267" y2="3264.18966546"/>
        <line x1="8087.72131267" y1="2820.18966546" x2="8087.72131267" y2="3264.18966546"/>
        <line x1="7961.72131267" y1="2820.18966546" x2="7961.72131267" y2="3264.18966546"/>
        <line x1="7835.72131267" y1="2820.18966546" x2="7835.72131267" y2="3264.18966546"/>
        <line x1="7709.72131267" y1="2820.18966546" x2="7709.72131267" y2="3264.18966546"/>
        <line x1="7583.72131267" y1="2820.18966546" x2="7583.72131267" y2="3264.18966546"/>
        <line x1="7457.72131267" y1="2852.68773336" x2="7457.72131267" y2="3264.18966546"/>
        <line x1="7331.72131267" y1="3074.68773336" x2="7331.72131267" y2="3264.18966546"/>
        <line x1="7123.93160083" y1="2820.18966546" x2="7123.93160083" y2="3264.18966546"/>
        <line x1="7205.72131267" y1="3264.18966546" x2="7457.72131267" y2="2820.18966546"/>
        <line x1="7224.16616202" y1="3264.18966546" x2="7476.16616202" y2="2820.18966546"/>
        <line x1="7243.93160083" y1="2820.18966546" x2="7243.93160083" y2="3196.8667768"/>
        <line x1="7363.93160083" y1="2820.18966546" x2="7363.93160083" y2="2985.43820537"/>
        <circle cx="8397.81737453" cy="3295.68966546" r="21.06830881"/>
        <line x1="8888.72131267" y1="1554.18966546" x2="8411.72131267" y2="1554.18966546"/>
        <line x1="8888.72131267" y1="1554.18966546" x2="8888.72131267" y2="1641.60525245"/>
        <line x1="8888.72131267" y1="1777.95314005" x2="8888.72131267" y2="2259.18966546"/>
        <line x1="8837.72131267" y1="2259.18966546" x2="8888.72131267" y2="2259.18966546"/>
        <line x1="8477.72131267" y1="2259.18966546" x2="8411.72131267" y2="2259.18966546"/>
        <line x1="8411.72131267" y1="2259.18966546" x2="8411.72131267" y2="1554.18966546"/>
        <line x1="6671.72131267" y1="3369.18966546" x2="6671.72131267" y2="3252.18966546"/>
        <line x1="7793.72131267" y1="555.18966546" x2="8165.72131267" y2="555.18966546"/>
        <line x1="7793.72131267" y1="483.18966546" x2="8165.72131267" y2="483.18966546"/>
        <line x1="7793.72131267" y1="513.18966546" x2="8165.72131267" y2="513.18966546"/>
        <line x1="7793.72131267" y1="525.18966546" x2="8165.72131267" y2="525.18966546"/>
        <line x1="6947.72131267" y1="555.18966546" x2="7319.72131267" y2="555.18966546"/>
        <line x1="6947.72131267" y1="483.18966546" x2="7319.72131267" y2="483.18966546"/>
        <line x1="6947.72131267" y1="513.18966546" x2="7319.72131267" y2="513.18966546"/>
        <line x1="6947.72131267" y1="525.18966546" x2="7319.72131267" y2="525.18966546"/>
        <line x1="4703.72131267" y1="3810.18966546" x2="4703.72131267" y2="942.18966546"/>
        <line x1="1757.72131267" y1="1692.18966546" x2="1757.72131267" y2="2002.05490742"/>
        <line x1="9587.72131267" y1="4713.18966546" x2="9587.72131267" y2="5097.18966546"/>
        <line x1="4991.72131267" y1="4224.18966546" x2="4991.72131267" y2="3840.18966546"/>
        <line x1="4991.72131267" y1="3840.18966546" x2="5009.72131267" y2="3840.18966546"/>
        <line x1="5009.72131267" y1="4224.18966546" x2="4991.72131267" y2="4224.18966546"/>
        <path d="M5399.72131267,4224.18966546 A484.86727975,484.86727975 0 0,0 5009.72131267,3840.18966546 "/>
        <line x1="5009.72131267" y1="3840.18966546" x2="5009.72131267" y2="4224.18966546"/>
        <line x1="4967.72131267" y1="4296.18966546" x2="4967.72131267" y2="4320.18966546"/>
        <line x1="4967.72131267" y1="4320.18966546" x2="5423.72131267" y2="4320.18966546"/>
        <line x1="5423.72131267" y1="4296.18966546" x2="5423.72131267" y2="4320.18966546"/>
        <line x1="3203.72131267" y1="4224.18966546" x2="3203.72131267" y2="3840.18966546"/>
        <line x1="3203.72131267" y1="3840.18966546" x2="3221.72131267" y2="3840.18966546"/>
        <line x1="3221.72131267" y1="4224.18966546" x2="3203.72131267" y2="4224.18966546"/>
        <path d="M3611.72131267,4224.18966546 A484.86727975,484.86727975 0 0,0 3221.72131267,3840.18966546 "/>
        <line x1="3221.72131267" y1="3840.18966546" x2="3221.72131267" y2="4224.18966546"/>
        <line x1="3179.72131267" y1="4296.18966546" x2="3179.72131267" y2="4320.18966546"/>
        <line x1="3179.72131267" y1="4320.18966546" x2="3611.72131267" y2="4320.18966546"/>
        <line x1="3611.72131267" y1="4296.18966546" x2="3611.72131267" y2="4320.18966546"/>
        <line x1="7066.67042156" y1="3042.18966546" x2="7243.93160083" y2="3042.18966546"/>
        <line x1="8374.92403464" y1="3042.18966546" x2="7457.72131267" y2="3042.18966546"/>
        <line x1="4655.72131267" y1="1656.18966546" x2="4223.72131267" y2="1656.18966546"/>
        <line x1="2621.72131267" y1="1273.50324236" x2="2621.72131267" y2="1309.50324236"/>
        <line x1="3125.72131267" y1="1531.50324236" x2="2621.72131267" y2="1531.50324236"/>
        <line x1="3125.72131267" y1="1309.50324236" x2="2621.72131267" y2="1309.50324236"/>
        <line x1="2621.72131267" y1="985.50324236" x2="2621.72131267" y2="558.18966546"/>
        <line x1="2855.72131267" y1="933.84645391" x2="2927.72131267" y2="933.84645391"/>
        <line x1="2891.72131267" y1="969.84645391" x2="2891.72131267" y2="897.84645391"/>
        <line x1="1829.72131267" y1="1992.18966546" x2="1925.72131267" y2="1992.18966546"/>
        <line x1="1925.72131267" y1="1992.18966546" x2="1925.72131267" y2="1944.18966546"/>
        <line x1="1925.72131267" y1="1944.18966546" x2="1829.72131267" y2="1944.18966546"/>
        <line x1="2285.72131267" y1="1944.18966546" x2="2285.72131267" y2="1992.18966546"/>
        <line x1="2053.21966321" y1="1509.37476873" x2="2053.21966321" y2="1011.00456219"/>
        <line x1="1829.72131267" y1="1509.37476873" x2="2053.21966321" y2="1509.37476873"/>
        <path d="M1943.9070344,1474.2693584 C1984.21214769,1474.2693584 2016.95212685,1377.86139873 2016.95212685,1259.17672523 C2016.95212685,1140.49205172 1984.21214769,1044.08409205 1943.9070344,1044.08409205 C1903.60192111,1044.08409205 1870.86194195,1140.49205172 1870.86194195,1259.17672523 C1870.86194195,1377.86139873 1903.60192111,1474.2693584 1943.9070344,1474.2693584 Z "/>
        <line x1="1829.72131267" y1="1011.00456219" x2="2053.21966321" y2="1011.00456219"/>
        <line x1="3314.72131267" y1="1944.18966546" x2="3314.72131267" y2="558.18966546"/>
        <line x1="3863.72131267" y1="1992.18966546" x2="3863.72131267" y2="2352.18966546"/>
        <line x1="3863.72131267" y1="2352.18966546" x2="3845.72131267" y2="2352.18966546"/>
        <line x1="3845.72131267" y1="2352.18966546" x2="3845.72131267" y2="1992.18966546"/>
        <line x1="3845.72131267" y1="1992.18966546" x2="3863.72131267" y2="1992.18966546"/>
        <path d="M3503.72131267,1992.18966546 A354.32382634,354.32382634 0 0,0 3845.72131267,2352.18966546 "/>
        <line x1="1925.72131267" y1="1992.18966546" x2="1925.72131267" y2="2352.18966546"/>
        <line x1="1925.72131267" y1="2352.18966546" x2="1943.72131267" y2="2352.18966546"/>
        <line x1="1943.72131267" y1="2352.18966546" x2="1943.72131267" y2="1992.18966546"/>
        <line x1="1943.72131267" y1="1992.18966546" x2="1925.72131267" y2="1992.18966546"/>
        <path d="M1943.72131267,2352.18966546 A354.32382634,354.32382634 0 0,0 2285.72131267,1992.18966546 "/>
        <line x1="4079.72131267" y1="1800.18966546" x2="4079.72131267" y2="558.18966546"/>
        <line x1="4223.72131267" y1="558.18966546" x2="4223.72131267" y2="1656.18966546"/>
        <line x1="4079.72131267" y1="1800.18966546" x2="4655.72131267" y2="1800.18966546"/>
        <line x1="2657.72131267" y1="985.50324236" x2="2657.72131267" y2="558.18966546"/>
        <line x1="3125.72131267" y1="1273.50324236" x2="2621.72131267" y2="1273.50324236"/>
        <line x1="2621.72131267" y1="985.50324236" x2="2657.72131267" y2="985.50324236"/>
        <line x1="2621.72131267" y1="985.50324236" x2="2621.72131267" y2="1273.50324236"/>
        <line x1="1925.72131267" y1="1968.18966546" x2="2285.72131267" y2="1968.18966546"/>
        <line x1="8936.72131267" y1="1641.60525245" x2="8793.10575611" y2="1641.60525245"/>
        <line x1="8936.72131267" y1="1777.95314005" x2="8793.10575611" y2="1777.95314005"/>
        <line x1="8793.10575611" y1="1641.60525245" x2="8793.10575611" y2="1777.95314005"/>
        <line x1="3887.72131267" y1="702.18966546" x2="3173.72131267" y2="702.18966546"/>
        <line x1="4703.72131267" y1="3640.49506533" x2="5003.72131267" y2="3640.49506533"/>
        <line x1="5003.72131267" y1="1881.67987749" x2="5003.72131267" y2="1437.75712508"/>
        <line x1="5003.72131267" y1="1437.75712508" x2="4703.72131267" y2="1437.75712508"/>
        <path d="M6084.04578693,2733.76419374 L5505.44067054,2733.76419374 L5505.44067054,1583.93346389 L6084.04578693,1583.93346389 L6084.04578693,2733.76419374 Z "/>
        <line x1="6504.77377071" y1="1107.85727393" x2="6671.72131267" y2="941.64779592"/>
        <line x1="6504.77377071" y1="1107.85727393" x2="6122.10099098" y2="725.1844942"/>
        <path d="M6470.48419751,984.79367999 L6236.89717097,751.20665346 L6384.9231428,603.18068163 L6618.51016933,836.76770816 L6470.48419751,984.79367999 Z "/>
        <circle cx="6533.17936425" cy="684.4518744" r="44.0000778"/>
        <line x1="9206.72131267" y1="5169.18966546" x2="9206.72131267" y2="5187.18966546"/>
        <line x1="9206.72131267" y1="5187.18966546" x2="9620.67823274" y2="5187.18966546"/>
        <line x1="9620.67823274" y1="5187.18966546" x2="9620.67823274" y2="5169.18966546"/>
        <line x1="9230.72131267" y1="3705.18966546" x2="9230.72131267" y2="3723.18966546"/>
        <line x1="9230.72131267" y1="3723.18966546" x2="9644.67823274" y2="3723.18966546"/>
        <line x1="9644.67823274" y1="3723.18966546" x2="9644.67823274" y2="3705.18966546"/>
        <line x1="5081.07651332" y1="1056.19017633" x2="4709.07651332" y2="1056.19017633"/>
        <line x1="5081.07651332" y1="1416.19017633" x2="4709.07651332" y2="1416.19017633"/>
        <line x1="4709.07651332" y1="1416.19017633" x2="4709.07651332" y2="1054.89276415"/>
        <line x1="5081.07651332" y1="1416.19017633" x2="5081.07651332" y2="1056.19017633"/>
        <line x1="5051.71456831" y1="1416.19017633" x2="5051.71456831" y2="1056.19017633"/>
        <line x1="4703.72131267" y1="3640.49506533" x2="5003.72131267" y2="3640.49506533"/>
        <line x1="5003.72131267" y1="3640.49506533" x2="5003.72131267" y2="2214.40326901"/>
        <path d="M5706.0522682,2146.42357358 L5533.10638047,2146.42357358 L5533.10638047,1949.65957292 L5706.0522682,1949.65957292 L5706.0522682,2146.42357358 Z "/>
        <line x1="5619.57932433" y1="2066.04157325" x2="5619.57932433" y2="2030.04157325"/>
        <line x1="5601.57932433" y1="2048.04157325" x2="5637.57932433" y2="2048.04157325"/>
        <line x1="4703.72131267" y1="2214.40326901" x2="5051.44296243" y2="2214.40326901"/>
        <line x1="4703.72131267" y1="1881.67987749" x2="5051.44296243" y2="1881.67987749"/>
        <line x1="5027.72131267" y1="2214.40326901" x2="5027.72131267" y2="1881.67987749"/>
        <circle cx="4938.43784236" cy="1979.19486398" r="57.15609539"/>
        <circle cx="4801.66765592" cy="1979.19486398" r="57.15609539"/>
        <circle cx="4938.43784236" cy="2115.95608465" r="57.15609539"/>
        <circle cx="4801.66765592" cy="2115.95608465" r="57.15609539"/>
        <line x1="6671.72131267" y1="1974.78290838" x2="4703.72131267" y2="1974.78290838"/>
        <circle cx="6692.16021049" cy="1974.22776659" r="107.9787784"/>
        <line x1="6800.13898889" y1="1974.22776659" x2="7014.29152654" y2="1887.69966682"/>
        <circle cx="4740.98792781" cy="1946.70753777" r="107.9787784"/>
        <line x1="4848.96670622" y1="1946.70753777" x2="5063.11924387" y2="1860.17943799"/>
        <path d="M4699.36619015,1993.8890382 L4660.27562354,1993.8890382 L4660.27562354,1955.34369349 L4699.36619015,1955.34369349 L4699.36619015,1993.8890382 Z "/>
        <line x1="4699.36619015" y1="1993.8890382" x2="4660.27562354" y2="1955.34369349"/>
        <line x1="4660.27562354" y1="1993.8890382" x2="4699.36619015" y2="1955.34369349"/>
        <path d="M6711.98684771,1993.8890382 L6672.8962811,1993.8890382 L6672.8962811,1955.34369349 L6711.98684771,1955.34369349 L6711.98684771,1993.8890382 Z "/>
        <line x1="6711.98684771" y1="1993.8890382" x2="6672.8962811" y2="1955.34369349"/>
        <line x1="6672.8962811" y1="1993.8890382" x2="6711.98684771" y2="1955.34369349"/>
        <line x1="3173.72131267" y1="315.58939583" x2="3173.72131267" y2="88.13825019"/>
        <line x1="3887.72131267" y1="315.58939583" x2="3887.72131267" y2="88.13825019"/>
        <line x1="3935.72131267" y1="315.58939583" x2="3935.72131267" y2="88.13825019"/>
        <line x1="3125.72131267" y1="315.58939583" x2="3125.72131267" y2="88.13825019"/>
        <line x1="1829.72131267" y1="315.58939583" x2="1829.72131267" y2="88.13825019"/>
        <line x1="1757.72131267" y1="315.58939583" x2="1757.72131267" y2="88.13825019"/>
        <line x1="1680.65360583" y1="154.19630714" x2="4883.8829694" y2="154.19630714"/>
        <line x1="1598.80672556" y1="1260.18966546" x2="1466.67737267" y2="1260.18966546"/>
        <line x1="1545.53887022" y1="558.18966546" x2="1318.08772458" y2="558.18966546"/>
        <line x1="1545.53887022" y1="486.18966546" x2="1318.08772458" y2="486.18966546"/>
        <line x1="1651.69432119" y1="1944.18966546" x2="1318.08772458" y2="1944.18966546"/>
        <line x1="1384.14578153" y1="2079.07731386" x2="1384.14578153" y2="424.42329794"/>
        <line x1="1650.22736599" y1="1992.18966546" x2="1318.08772458" y2="1992.18966546"/>
        <line x1="1485.96511069" y1="2076.07652496" x2="1485.96511069" y2="421.42250904"/>
        <line x1="8411.72131267" y1="2085.6577172" x2="9085.16624641" y2="1832.37140034"/>
        <line x1="6658.49236691" y1="329.61145752" x2="6384.9231428" y2="603.18068163"/>
        <line x1="6597.14984983" y1="1000.75476307" x2="6889.00242917" y2="890.98741435"/>
        <line x1="6713.72131267" y1="2005.74735951" x2="6671.72131267" y2="2005.74735951"/>
        <line x1="6671.72131267" y1="2005.74735951" x2="6671.72131267" y2="2355.18966546"/>
        <line x1="6713.72131267" y1="2005.74735951" x2="6713.72131267" y2="2355.18966546"/>
        <line x1="6713.72131267" y1="2733.76419374" x2="6671.72131267" y2="2733.76419374"/>
        <line x1="6671.72131267" y1="2733.76419374" x2="6671.72131267" y2="2709.18966546"/>
        <line x1="6713.72131267" y1="2733.76419374" x2="6713.72131267" y2="2709.18966546"/>
        <line x1="6812.94274589" y1="2363.05603583" x2="7019.22906701" y2="2294.90949943"/>
        <line x1="8880.13182999" y1="555.18966546" x2="8880.13182999" y2="483.18966546"/>
        <line x1="8518.94800068" y1="555.18966546" x2="8518.94800068" y2="483.18966546"/>
        <line x1="8518.94800068" y1="555.18966546" x2="8880.13182999" y2="555.18966546"/>
        <line x1="8518.94800068" y1="483.18966546" x2="8880.13182999" y2="483.18966546"/>
        <line x1="8518.94800068" y1="513.18966546" x2="8880.13182999" y2="513.18966546"/>
        <line x1="8518.94800068" y1="525.18966546" x2="8880.13182999" y2="525.18966546"/>
        <line x1="6149.39494478" y1="558.18966546" x2="6149.39494478" y2="486.18966546"/>
        <line x1="5776.57274727" y1="558.18966546" x2="5776.57274727" y2="486.18966546"/>
        <line x1="5776.57274727" y1="558.18966546" x2="6149.39494478" y2="558.18966546"/>
        <line x1="5776.57274727" y1="486.18966546" x2="6149.39494478" y2="486.18966546"/>
        <line x1="5776.57274727" y1="516.18966546" x2="6149.39494478" y2="516.18966546"/>
        <line x1="5776.57274727" y1="528.18966546" x2="6149.39494478" y2="528.18966546"/>
        <line x1="5460.57673752" y1="558.18966546" x2="5460.57673752" y2="486.18966546"/>
        <line x1="5088.57673752" y1="486.18966546" x2="5088.57673752" y2="558.18966546"/>
        <line x1="5088.57673752" y1="558.18966546" x2="5460.57673752" y2="558.18966546"/>
        <line x1="5088.57673752" y1="486.18966546" x2="5460.57673752" y2="486.18966546"/>
        <line x1="5088.57673752" y1="516.18966546" x2="5460.57673752" y2="516.18966546"/>
        <line x1="5088.57673752" y1="528.18966546" x2="5460.57673752" y2="528.18966546"/>
        <line x1="1829.72131267" y1="3859.38608416" x2="1757.72131267" y2="3859.38608416"/>
        <line x1="1829.72131267" y1="2707.38608416" x2="1757.72131267" y2="2707.38608416"/>
        <line x1="1767.66814473" y1="3855.61406102" x2="1767.66814473" y2="3267.61406102"/>
        <line x1="1785.66814473" y1="3855.61406102" x2="1767.66814473" y2="3855.61406102"/>
        <line x1="1785.66814473" y1="3267.61406102" x2="1785.66814473" y2="3855.61406102"/>
        <line x1="1785.66814473" y1="3267.61406102" x2="1767.66814473" y2="3267.61406102"/>
        <line x1="1790.53527837" y1="3298.77363408" x2="1790.53527837" y2="2710.77363408"/>
        <line x1="1808.53527837" y1="3298.77363408" x2="1790.53527837" y2="3298.77363408"/>
        <line x1="1808.53527837" y1="2710.77363408" x2="1808.53527837" y2="3298.77363408"/>
        <line x1="1808.53527837" y1="2710.77363408" x2="1790.53527837" y2="2710.77363408"/>
        <line x1="1758.54460837" y1="3871.35780852" x2="1734.54460837" y2="3871.35780852"/>
        <line x1="1734.54460837" y1="3871.35780852" x2="1734.54460837" y2="2695.35780852"/>
        <line x1="1734.54460837" y1="2695.35780852" x2="1757.72131267" y2="2695.35780852"/>
        <line x1="1829.72131267" y1="3859.38608416" x2="1829.72131267" y2="2710.77363408"/>
        <line x1="5051.44296243" y1="2214.40326901" x2="5051.44296243" y2="1881.67987749"/>
        <line x1="3077.92832595" y1="1445.91515861" x2="4760.28614852" y2="1445.91515861"/>
        <line x1="3503.72131267" y1="1903.60084667" x2="3503.72131267" y2="1415.66508424"/>
        <line x1="4607.72131267" y1="1944.18966546" x2="4607.72131267" y2="1992.18966546"/>
        <line x1="557.72131267" y1="2406.94984531" x2="557.72131267" y2="486.18966546"/>
        <line x1="557.72131267" y1="486.18966546" x2="1757.72131267" y2="486.18966546"/>
        <line x1="557.72131267" y1="2406.94984531" x2="1757.72131267" y2="2406.94984531"/>
        <line x1="1705.94435327" y1="1260.18966546" x2="1639.87967682" y2="1260.18966546"/>
        <line x1="424.90934558" y1="248.57096131" x2="1012.0490242" y2="1047.87228406"/>
        <line x1="424.90934558" y1="248.57096131" x2="548.74312116" y2="248.57096131"/>
        <line x1="4347.19686852" y1="4296.18966546" x2="4347.19686852" y2="5118.18966546"/>
        <line x1="4377.19686852" y1="4296.18966546" x2="4377.19686852" y2="5088.18966546"/>
        <line x1="4347.19686852" y1="5118.18966546" x2="5000.23790656" y2="5118.18966546"/>
        <line x1="5384.23790656" y1="5118.18966546" x2="5480.13857939" y2="5118.18966546"/>
        <line x1="5480.13857939" y1="5118.18966546" x2="5480.13857939" y2="4296.18966546"/>
        <line x1="5450.13857939" y1="5088.18966546" x2="5450.13857939" y2="4296.18966546"/>
        <line x1="4526.71523288" y1="286.34499323" x2="3173.72131267" y2="1282.18335727"/>
        <line x1="8411.72131267" y1="1554.18966546" x2="8369.72131267" y2="1554.18966546"/>
        <line x1="4377.19686852" y1="4296.18966546" x2="4377.19686852" y2="5088.18966546"/>
        <line x1="4377.19686852" y1="5088.18966546" x2="5000.23790656" y2="5088.18966546"/>
        <line x1="5384.23790656" y1="5088.18966546" x2="5450.13857939" y2="5088.18966546"/>
        <line x1="5384.23790656" y1="5118.18966546" x2="5384.23790656" y2="5088.18966546"/>
        <line x1="5000.23790656" y1="5118.18966546" x2="5000.23790656" y2="5088.18966546"/>
        <line x1="5384.23790656" y1="5088.18966546" x2="5384.23790656" y2="4704.18966546"/>
        <line x1="5384.23790656" y1="4704.18966546" x2="5366.23790656" y2="4704.18966546"/>
        <line x1="5366.23790656" y1="4704.18966546" x2="5366.23790656" y2="5088.18966546"/>
        <line x1="5366.23790656" y1="5088.18966546" x2="5384.23790656" y2="5088.18966546"/>
        <path d="M5366.23790656,4704.18966546 A378.3024818,378.3024818 0 0,0 5000.23790656,5088.18966546 "/>
        <line x1="4985.23790656" y1="5118.18966546" x2="4985.23790656" y2="5136.18966546"/>
        <line x1="4985.23790656" y1="5136.18966546" x2="5399.19482663" y2="5136.18966546"/>
        <line x1="5399.19482663" y1="5136.18966546" x2="5399.19482663" y2="5118.18966546"/>
        <path d="M4981.72638063,3083.45192334 L4777.79971583,3083.45192334 L4777.79971583,2867.41837474 L4981.72638063,2867.41837474 L4981.72638063,3083.45192334 Z "/>
        <path d="M4981.72638063,3313.61826592 L4777.79971583,3313.61826592 L4777.79971583,3097.58471732 L4981.72638063,3097.58471732 L4981.72638063,3313.61826592 Z "/>
        <line x1="4879.76304823" y1="3224.60606898" x2="4879.76304823" y2="3188.60606898"/>
        <line x1="4861.76304823" y1="3206.60606898" x2="4897.76304823" y2="3206.60606898"/>
        <line x1="4879.76304823" y1="2994.4397264" x2="4879.76304823" y2="2958.4397264"/>
        <line x1="4861.76304823" y1="2976.4397264" x2="4897.76304823" y2="2976.4397264"/>
        <line x1="6122.10099098" y1="725.1844942" x2="6297.57440862" y2="558.18966546"/>
        <line x1="5460.57673752" y1="486.18966546" x2="5776.57274727" y2="486.18966546"/>
        <line x1="6149.39494478" y1="486.18966546" x2="6947.72131267" y2="486.18966546"/>
        <line x1="4703.72131267" y1="558.18966546" x2="5088.57673752" y2="558.18966546"/>
        <path d="M285.85583226,8710.03582553 L3792.69001396,8710.03582553 L3792.69001396,5042.18735254 L285.85583226,5042.18735254 L285.85583226,8710.03582553 Z "/>
        <path d="M4607.72131267,3292.34648688 L4383.3442134,3292.34648688 L4383.3442134,3505.6234643 L4607.72131267,3505.6234643 L4607.72131267,3292.34648688 Z "/>
        <line x1="3808.31699878" y1="1289.74670929" x2="4347.77477765" y2="1289.8194047"/>
        <line x1="4669.73334268" y1="646.87380988" x2="4223.72131267" y2="975.15014847"/>
        <line x1="4669.73334268" y1="751.24906663" x2="4079.72131267" y2="1185.51311311"/>
        <line x1="3760.73334268" y1="373.91332688" x2="3314.72131267" y2="702.18966546"/>
        <line x1="4655.72131267" y1="315.58939583" x2="4655.72131267" y2="88.13825019"/>
        <line x1="4703.72131267" y1="315.58939583" x2="4703.72131267" y2="88.13825019"/>
        <line x1="3173.72131267" y1="558.18966546" x2="3125.72131267" y2="558.18966546"/>
        <line x1="3887.72131267" y1="558.18966546" x2="3935.72131267" y2="558.18966546"/>
        <line x1="1703.96882518" y1="1803.67222431" x2="1423.30001731" y2="2319.38704848"/>
        <line x1="1558.07946515" y1="1578.18966546" x2="1757.72131267" y2="1578.18966546"/>
        <line x1="1558.07946515" y1="1873.39423413" x2="1757.72131267" y2="1873.39423413"/>
        <line x1="1558.07946515" y1="1578.18966546" x2="1558.07946515" y2="1873.39423413"/>
        <line x1="6658.49236691" y1="329.61145752" x2="6072.49667404" y2="507.74635319"/>
        <line x1="4690.97375062" y1="2555.7173721" x2="4897.26007174" y2="2487.57083569"/>
        <line x1="4684.11145895" y1="1155.68146173" x2="4890.39778007" y2="1087.53492532"/>
        <circle cx="4167.91962734" cy="2025.05634304" r="22.16480878"/>
        <line x1="4173.09057971" y1="2057.65825047" x2="4173.09057971" y2="1991.8470885"/>
        <line x1="4162.56817631" y1="2057.65825047" x2="4162.56817631" y2="1991.8470885"/>
        <circle cx="4569.30183849" cy="2694.28620201" r="22.16480878"/>
        <line x1="4536.69993106" y1="2699.45715438" x2="4602.51109303" y2="2699.45715438"/>
        <line x1="4536.69993106" y1="2688.93475098" x2="4602.51109303" y2="2688.93475098"/>
        <circle cx="3849.30183849" cy="1184.90353218" r="22.16480878"/>
        <line x1="3816.69993106" y1="1190.07448455" x2="3882.51109303" y2="1190.07448455"/>
        <line x1="3816.69993106" y1="1179.55208115" x2="3882.51109303" y2="1179.55208115"/>
        <circle cx="1862.3232201" cy="1788.94284219" r="22.16480878"/>
        <line x1="1829.72131267" y1="1794.11379456" x2="1895.53247464" y2="1794.11379456"/>
        <line x1="1829.72131267" y1="1783.59139116" x2="1895.53247464" y2="1783.59139116"/>
        <circle cx="1862.3232201" cy="1058.66772855" r="22.16480878"/>
        <line x1="1829.72131267" y1="1063.83868092" x2="1895.53247464" y2="1063.83868092"/>
        <line x1="1829.72131267" y1="1053.31627752" x2="1895.53247464" y2="1053.31627752"/>
        <circle cx="1862.3232201" cy="2593.78554096" r="22.16480878"/>
        <line x1="1829.72131267" y1="2598.95649333" x2="1895.53247464" y2="2598.95649333"/>
        <line x1="1829.72131267" y1="2588.43408993" x2="1895.53247464" y2="2588.43408993"/>
        <circle cx="2182.53797968" cy="3983.63647545" r="22.16480878"/>
        <line x1="2187.70893205" y1="4016.23838288" x2="2187.70893205" y2="3950.42722091"/>
        <line x1="2177.18652865" y1="4016.23838288" x2="2177.18652865" y2="3950.42722091"/>
        <circle cx="3759.5503603" cy="4202.63647545" r="22.16480878"/>
        <line x1="3764.72131267" y1="4235.23838288" x2="3764.72131267" y2="4169.42722091"/>
        <line x1="3754.19890927" y1="4235.23838288" x2="3754.19890927" y2="4169.42722091"/>
        <circle cx="5850.5503603" cy="4202.63647545" r="22.16480878"/>
        <line x1="5855.72131267" y1="4235.23838288" x2="5855.72131267" y2="4169.42722091"/>
        <line x1="5845.19890927" y1="4235.23838288" x2="5845.19890927" y2="4169.42722091"/>
        <circle cx="6638.51205813" cy="3774.0545246" r="22.16480878"/>
        <line x1="6605.9101507" y1="3779.22547697" x2="6671.72131267" y2="3779.22547697"/>
        <line x1="6605.9101507" y1="3768.70307357" x2="6671.72131267" y2="3768.70307357"/>
        <line x1="5150.33624826" y1="1400.98190675" x2="4674.35409481" y2="1751.31702789"/>
        <line x1="2621.72131267" y1="1309.50324236" x2="2621.72131267" y2="1531.50324236"/>
    </g>
    <g lc:layername="Stairs" lc:is_locked="false" lc:is_construction="false" fill="none" stroke="black" stroke-width="1">
        <path d="M7243.93160083,3042.18966546 L7225.92996205,3064.88982285 "/>
        <path d="M7243.93160083,3042.18966546 L7221.85345083,3023.4303628 "/>
        <path d="M7457.72131267,3042.18966546 L7475.72295144,3019.48950808 "/>
        <path d="M7457.72131267,3042.18966546 L7479.79946267,3060.94896813 "/>
        <path d="M1769.02602116,163.25404427 L1746.41660418,145.13857001 "/>
        <path d="M1841.02602116,163.25404427 L1818.41660418,145.13857001 "/>
        <path d="M3137.02602116,163.25404427 L3114.41660418,145.13857001 "/>
        <path d="M3185.02602116,163.25404427 L3162.41660418,145.13857001 "/>
        <path d="M3899.02602116,163.25404427 L3876.41660418,145.13857001 "/>
        <path d="M3947.02602116,163.25404427 L3924.41660418,145.13857001 "/>
        <path d="M1393.20351866,1932.88495697 L1375.0880444,1955.49437395 "/>
        <path d="M1497.73382094,1248.88495697 L1479.61834668,1271.49437395 "/>
        <path d="M1393.20351866,546.88495697 L1375.0880444,569.49437395 "/>
        <path d="M1393.20351866,474.88495697 L1375.0880444,497.49437395 "/>
        <path d="M1393.20351866,1980.88495697 L1375.0880444,2003.49437395 "/>
        <path d="M1495.02284782,471.88416808 L1476.90737355,494.49358506 "/>
        <path d="M1495.02284782,1977.88416808 L1476.90737356,2000.49358506 "/>
        <path d="M6384.9231428,603.18068163 L6381.60078843,574.40016556 "/>
        <path d="M6384.9231428,603.18068163 L6413.7995825,600.83390218 "/>
        <path d="M6809.49134707,2364.19620293 L6821.28024458,2337.73154651 "/>
        <path d="M6809.49134707,2364.19620293 L6835.54202432,2376.87367739 "/>
        <path d="M3134.7790498,1434.61045012 L3116.66357554,1457.21986709 "/>
        <path d="M3182.7790498,1434.61045012 L3164.66357554,1457.21986709 "/>
        <path d="M3896.7790498,1434.61045012 L3878.66357554,1457.21986709 "/>
        <path d="M3944.7790498,1434.61045012 L3926.66357554,1457.21986709 "/>
        <path d="M3512.7790498,1434.61045012 L3494.66357554,1457.21986709 "/>
        <path d="M6593.77970212,1002.11646759 L6603.82663023,974.94266809 "/>
        <path d="M6593.77970212,1002.11646759 L6620.59804904,1013.07696082 "/>
        <path d="M1012.0490242,1047.87228406 L983.37932378,1043.70042334 "/>
        <path d="M1012.0490242,1047.87228406 L1017.18842091,1019.36013322 "/>
        <path d="M3173.72131267,1282.18335726 L3174.63400343,1253.22609325 "/>
        <path d="M3173.72131267,1282.18335726 L3202.63112341,1284.07517822 "/>
        <path d="M8408.35116496,2087.01942171 L8418.39809307,2059.84562221 "/>
        <path d="M8408.35116496,2087.01942171 L8435.16951188,2097.97991494 "/>
        <path d="M4462.00013686,3459.22743894 L4450.27424273,3525.25980205 "/>
        <path d="M4462.00013686,3459.22743894 L4396.40227125,3445.27431746 "/>
        <line x1="4167.63541879" y1="3658.8677357" x2="4462.00013686" y2="3459.22743894"/>
        <path d="M3936.70320287,720.60903977 L3937.61589363,691.65177575 "/>
        <path d="M3936.70320287,720.60903977 L3965.61301361,722.50086072 "/>
        <path d="M3895.02381958,1278.4420008 L3876.90834532,1301.05141778 "/>
        <path d="M3943.02381958,1278.4420008 L3924.90834532,1301.05141778 "/>
        <path d="M4231.02381958,1278.4420008 L4212.90834532,1301.05141778 "/>
        <path d="M4079.72131267,1185.51311316 L4080.63400343,1156.55584914 "/>
        <path d="M4079.72131267,1185.51311316 L4108.63112341,1187.40493412 "/>
        <path d="M4223.72131267,975.15014852 L4224.63400343,946.1928845 "/>
        <path d="M4223.72131267,975.15014852 L4252.63112341,977.04196948 "/>
        <path d="M3314.72131267,702.18966552 L3315.63400343,673.2324015 "/>
        <path d="M3314.72131267,702.18966552 L3343.63112341,704.08148647 "/>
        <path d="M4667.02602116,163.25404427 L4644.41660418,145.13857001 "/>
        <path d="M4715.02602116,163.25404427 L4692.41660418,145.13857001 "/>
        <path d="M1705.84521566,1800.55914006 L1677.42658233,1806.19273776 "/>
        <path d="M1705.84521566,1800.55914006 L1712.43701876,1828.77091554 "/>
        <path d="M4662.17118735,1437.86525033 L4644.05571309,1460.47466731 "/>
        <path d="M4710.17118735,1437.86525033 L4692.05571309,1460.47466731 "/>
        <path d="M6072.49667404,507.74635319 L6081.50981473,480.21238437 "/>
        <path d="M6072.49667404,507.74635319 L6099.70995815,517.68583565 "/>
        <path d="M4687.52235181,2556.85753919 L4699.31124931,2530.39288277 "/>
        <path d="M4687.52235181,2556.85753919 L4713.57302906,2569.53501365 "/>
        <path d="M4680.66006013,1156.82162882 L4692.44895764,1130.3569724 "/>
        <path d="M4680.66006013,1156.82162882 L4706.71073738,1169.49910328 "/>
        <path d="M4674.35409481,1751.31702795 L4675.26678557,1722.35976393 "/>
        <path d="M4674.35409481,1751.31702795 L4703.26390555,1753.2088489 "/>
    </g>
    <g lc:layername="WALL" lc:is_locked="false" lc:is_construction="false" fill="none" stroke="black" stroke-width="1">
        <circle cx="4937.74773232" cy="6144.42269306" r="259.31727844"/>
        <line x1="4436.22496701" y1="6144.42269306" x2="7963.93874948" y2="6144.42269306"/>
    </g>
    <g lc:layername="Walls" lc:is_locked="false" lc:is_construction="false" fill="none" stroke="black" stroke-width="1">
        <line x1="466.48268873" y1="5762.62540803" x2="2643.43680025" y2="5762.62540803"/>
        <line x1="455.92758837" y1="7304.1125999" x2="2632.88169989" y2="7304.1125999"/>
        <line x1="296.41093262" y1="5802.20425282" x2="3792.69001396" y2="5802.20425282"/>
        <line x1="296.41093262" y1="6010.82029558" x2="3792.69001396" y2="6010.82029558"/>
        <line x1="296.41093262" y1="6219.43633834" x2="3792.69001396" y2="6219.43633834"/>
        <line x1="296.41093262" y1="6428.05238111" x2="3792.69001396" y2="6428.05238111"/>
        <line x1="296.41093262" y1="6636.66842387" x2="3792.69001396" y2="6636.66842387"/>
        <line x1="296.41093262" y1="6845.28446663" x2="3792.69001396" y2="6845.28446663"/>
        <line x1="633.83542163" y1="5802.20425282" x2="633.83542163" y2="7053.90050939"/>
        <line x1="1828.32901014" y1="5802.20425282" x2="1828.32901014" y2="7053.90050939"/>
        <line x1="3349.77690211" y1="5802.20425282" x2="3349.77690211" y2="7053.90050939"/>
        <line x1="285.85583226" y1="7771.98142821" x2="3792.69001396" y2="7771.98142821"/>
        <line x1="285.85583226" y1="7980.59747097" x2="3792.69001396" y2="7980.59747097"/>
        <line x1="623.28032126" y1="7354.74934268" x2="623.28032127" y2="7980.59747097"/>
        <line x1="1817.77390978" y1="7354.74934268" x2="1817.77390978" y2="7980.59747097"/>
        <line x1="3339.22180175" y1="7354.74934268" x2="3339.22180175" y2="7980.59747097"/>
        <line x1="285.85583226" y1="7354.74934268" x2="3792.69001396" y2="7354.74934268"/>
        <line x1="285.85583226" y1="8189.21351373" x2="3792.69001396" y2="8189.21351373"/>
        <line x1="296.41093262" y1="7053.90050939" x2="3792.69001396" y2="7053.90050939"/>
        <line x1="285.85583226" y1="7563.36538544" x2="3792.69001396" y2="7563.36538544"/>
        <circle cx="3180.5483797" cy="2544.45600354" r="18.20994471"/>
        <circle cx="3180.5483797" cy="2544.45600354" r="70.98181194"/>
    </g>
</svg>
